<?xml version="1.0" encoding="utf-8"?>
<!-- Generator: Adobe Illustrator 22.0.1, SVG Export Plug-In . SVG Version: 6.00 Build 0)  -->
<svg version="1.1" xmlns="http://www.w3.org/2000/svg" xmlns:xlink="http://www.w3.org/1999/xlink" x="0px" y="0px"
	 viewBox="0 0 430.1 430.1" style="enable-background:new 0 0 430.1 430.1;" xml:space="preserve">
<style type="text/css">
	.st0{display:none;}
	.st1{display:inline;}
</style>
<g id="Capa_1" class="st0">
	<g class="st1">
		<path id="LinkedIn" d="M430.1,261.5v159h-92.2V272.2c0-37.3-13.3-62.7-46.7-62.7c-25.5,0-40.6,17.1-47.3,33.7
			c-2.4,5.9-3.1,14.2-3.1,22.5v154.9h-92.2c0,0,1.2-251.3,0-277.3h92.2v39.3c-0.2,0.3-0.4,0.6-0.6,0.9h0.6v-0.9
			c12.3-18.9,34.1-45.8,83.1-45.8C384.6,136.7,430.1,176.4,430.1,261.5z M52.2,9.6C20.6,9.6,0,30.3,0,57.5c0,26.6,20,47.9,51,47.9
			h0.6c32.2,0,52.2-21.3,52.2-47.9C103.1,30.3,83.7,9.6,52.2,9.6z M5.5,420.6h92.2V143.2H5.5V420.6z"/>
	</g>
</g>
<g id="Layer_2">
	<path d="M4.8,215.4l121-121.3H176l24.9-42.7L365.5,6.9l45.1,164.1l-25.1,44.4l25.1,42.8l-44.2,165.7l-165.9-44.7L176,335.6
		l-50.3,0.4L4.8,215.4z M233.8,194.6l72.3-125.9l-127,32.7l-90.7,93.2H233.8z M269,214.8l73.2,125.5l35.4-124.9L342.1,89.2
		L269,214.8z M179.8,328.7L306.1,361l-72.5-125.4H88.4L179.8,328.7z"/>
</g>
</svg>
